<!DOCTYPE svg PUBLIC "-//W3C//DTD SVG 20010904//EN" "http://www.w3.org/TR/2001/REC-SVG-20010904/DTD/svg10.dtd">
<svg version="1.0" xmlns="http://www.w3.org/2000/svg" width="798px" height="798px" viewBox="0 0 7980 7980" preserveAspectRatio="xMidYMid meet">
<g id="layer101" fill="#7e7d83" stroke="none">
 <path d="M2742 7809 c2 -7 10 -15 17 -17 8 -3 12 1 9 9 -2 7 -10 15 -17 17 -8 3 -12 -1 -9 -9z"/>
 <path d="M927 7733 c-2 -4 -1 -17 3 -28 7 -19 8 -19 15 -2 8 18 -9 46 -18 30z"/>
 <path d="M6232 7719 c2 -6 8 -10 13 -10 5 0 11 4 13 10 2 6 -4 11 -13 11 -9 0 -15 -5 -13 -11z"/>
 <path d="M4501 7593 c4 -23 -2 -43 -11 -38 -6 4 -8 11 -5 16 4 5 1 9 -5 9 -19 0 -6 -34 14 -38 25 -5 39 12 31 37 -6 19 -27 31 -24 14z"/>
 <path d="M4340 7138 c0 -19 2 -20 10 -8 13 19 13 30 0 30 -5 0 -10 -10 -10 -22z"/>
 <path d="M244 7049 c-8 -13 25 -24 37 -12 7 7 3 12 -10 16 -12 3 -24 1 -27 -4z"/>
 <path d="M2785 7030 c-3 -4 1 -10 7 -12 8 -3 4 -9 -10 -17 -29 -15 -40 -7 -21 15 12 15 12 17 -1 12 -18 -6 -23 -28 -11 -48 9 -12 14 -12 45 3 24 11 34 21 30 31 -7 18 -31 28 -39 16z"/>
 <path d="M4408 7002 c-10 -2 -18 -8 -18 -13 0 -5 8 -9 18 -10 15 0 15 -1 -2 -8 -19 -7 -19 -8 -1 -15 12 -4 24 -1 34 9 9 9 11 15 4 15 -6 0 -13 6 -15 13 -2 7 -11 11 -20 9z"/>
 <path d="M1580 6745 c-10 -13 -9 -15 9 -15 11 0 21 4 21 9 0 18 -18 21 -30 6z"/>
 <path d="M3816 6732 c-7 -12 40 -29 51 -18 4 3 -3 6 -14 6 -12 0 -23 5 -25 12 -3 9 -6 9 -12 0z"/>
 <path d="M4740 6510 c-8 -5 -11 -13 -6 -17 5 -4 11 -2 13 5 3 6 10 9 15 6 7 -4 8 -2 4 4 -9 14 -7 14 -26 2z"/>
 <path d="M2447 6413 c-13 -13 -7 -32 8 -27 8 4 15 12 15 20 0 15 -12 19 -23 7z"/>
 <path d="M1232 6397 c-9 -11 -10 -17 -2 -22 15 -9 23 -1 18 21 -3 15 -4 16 -16 1z"/>
 <path d="M7257 6364 c-8 -8 1 -24 14 -24 5 0 9 7 9 15 0 15 -12 20 -23 9z"/>
 <path d="M1742 6237 c-42 -43 -50 -57 -33 -57 6 0 16 12 23 27 7 15 26 34 41 41 15 7 27 17 27 23 0 18 -16 9 -58 -34z"/>
 <path d="M7520 6235 c0 -8 7 -15 15 -15 8 0 15 4 15 9 0 5 -7 11 -15 15 -9 3 -15 0 -15 -9z"/>
 <path d="M1800 6225 c0 -8 5 -15 10 -15 6 0 10 7 10 15 0 8 -4 15 -10 15 -5 0 -10 -7 -10 -15z"/>
 <path d="M3337 6206 c-3 -8 0 -16 6 -19 7 -3 13 3 13 14 0 22 -12 25 -19 5z"/>
 <path d="M1740 6170 c0 -5 7 -10 15 -10 8 0 15 5 15 10 0 6 -7 10 -15 10 -8 0 -15 -4 -15 -10z"/>
 <path d="M6153 6016 c-8 -10 -8 -17 -1 -24 8 -8 8 -15 0 -24 -8 -11 -6 -14 9 -14 20 0 26 20 9 31 -6 4 -8 15 -5 26 7 22 4 23 -12 5z"/>
 <path d="M3069 5924 c-17 -21 -19 -54 -2 -54 7 0 13 6 14 13 0 6 2 22 3 35 3 26 2 27 -15 6z"/>
 <path d="M2087 5892 c-3 -4 1 -13 9 -19 7 -7 15 -9 17 -5 3 4 -1 13 -9 19 -7 7 -15 9 -17 5z"/>
 <path d="M4780 5876 c0 -8 -8 -20 -17 -25 -17 -10 -17 -10 -1 -11 21 0 43 36 28 45 -5 3 -10 -1 -10 -9z"/>
 <path d="M1567 5533 c-12 -11 -8 -23 7 -23 8 0 16 7 20 15 5 15 -14 21 -27 8z"/>
 <path d="M3996 5493 c3 -13 1 -23 -5 -23 -6 0 -11 -7 -11 -15 0 -9 6 -12 15 -8 9 3 13 8 10 11 -3 3 2 14 12 24 9 10 13 21 9 25 -4 4 -11 1 -15 -6 -7 -11 -10 -11 -15 0 -3 8 -3 4 0 -8z"/>
 <path d="M5883 5357 c-3 -5 0 -14 6 -20 9 -9 14 -8 21 3 5 8 10 18 10 21 0 9 -30 6 -37 -4z"/>
 <path d="M162 5229 c2 -7 10 -15 17 -17 8 -3 12 1 9 9 -2 7 -10 15 -17 17 -8 3 -12 -1 -9 -9z"/>
 <path d="M4666 5062 c-2 -4 2 -18 9 -32 l14 -25 -2 32 c-2 31 -10 42 -21 25z"/>
 <path d="M7120 5035 c0 -10 7 -15 18 -13 21 4 19 22 -2 26 -10 2 -16 -3 -16 -13z"/>
 <path d="M2055 4910 c-14 -15 -13 -16 7 -14 13 1 29 3 36 3 6 1 12 7 12 14 0 18 -38 16 -55 -3z"/>
 <path d="M4522 4818 c5 -15 28 -23 28 -10 0 5 -7 13 -16 16 -10 4 -14 1 -12 -6z"/>
 <path d="M5536 4725 c-20 -21 -20 -20 4 -22 23 -2 32 8 21 26 -6 10 -12 9 -25 -4z"/>
 <path d="M1773 4643 c-19 -7 -16 -19 6 -19 11 0 17 5 14 13 -3 7 -6 13 -7 12 0 0 -7 -3 -13 -6z"/>
 <path d="M6454 4632 c-15 -13 -18 -21 -10 -28 24 -22 37 -25 52 -10 11 12 12 20 4 36 -13 24 -19 24 -46 2z"/>
 <path d="M5690 4422 c0 -5 7 -16 16 -23 14 -12 16 -11 13 5 -4 20 -29 35 -29 18z"/>
 <path d="M1246 4161 c-4 -6 -2 -11 3 -11 6 0 12 -10 12 -22 1 -17 3 -18 6 -6 6 23 -12 55 -21 39z"/>
 <path d="M2510 3989 c0 -6 -9 -8 -22 -4 -16 4 -19 3 -9 -3 11 -8 11 -10 0 -14 -8 -3 -11 -9 -7 -13 5 -5 16 -1 26 8 10 10 21 15 24 12 3 -3 8 1 11 10 4 9 1 15 -8 15 -8 0 -15 -5 -15 -11z"/>
 <path d="M820 3630 c0 -13 11 -13 30 0 12 8 11 10 -7 10 -13 0 -23 -4 -23 -10z"/>
 <path d="M5432 3624 c-17 -19 -15 -22 13 -20 14 0 25 6 25 12 0 18 -24 23 -38 8z"/>
 <path d="M977 3570 c-3 -13 0 -20 9 -20 8 0 14 -5 14 -12 0 -8 5 -7 15 3 10 10 13 22 9 34 -7 18 -8 18 -15 -1 -7 -17 -8 -17 -8 -1 -1 23 -17 22 -24 -3z"/>
 <path d="M400 3500 c0 -6 4 -9 9 -5 5 3 12 1 16 -5 5 -9 -15 -15 -37 -11 -18 3 -6 -18 13 -24 25 -8 42 6 37 31 -4 20 -38 33 -38 14z"/>
 <path d="M3156 3446 c3 -9 11 -16 16 -16 13 0 5 23 -10 28 -7 2 -10 -2 -6 -12z"/>
 <path d="M2916 3313 c-12 -13 -5 -18 25 -20 34 -3 35 -1 3 15 -12 6 -24 8 -28 5z"/>
 <path d="M1467 3235 c-4 -8 -1 -17 5 -21 7 -4 8 -3 4 4 -4 7 -2 12 3 12 6 0 11 5 11 10 0 15 -17 12 -23 -5z"/>
 <path d="M2131 3222 c-1 -7 -11 -16 -23 -21 -12 -4 -17 -11 -11 -14 15 -9 47 17 40 34 -4 10 -6 10 -6 1z"/>
 <path d="M5090 2680 c0 -21 34 -44 55 -37 7 3 12 16 12 29 0 19 -5 23 -33 25 -28 3 -34 -1 -34 -17z"/>
 <path d="M4354 2547 c-13 -15 -7 -37 9 -37 7 0 13 11 13 25 2 27 -5 31 -22 12z"/>
 <path d="M3255 2444 c-13 -13 -14 -19 -4 -25 18 -11 28 -2 26 21 -2 24 -1 24 -22 4z"/>
 <path d="M7292 2449 c2 -6 8 -10 13 -10 5 0 11 4 13 10 2 6 -4 11 -13 11 -9 0 -15 -5 -13 -11z"/>
 <path d="M6580 2392 c0 -10 21 -32 32 -32 16 0 8 19 -12 30 -11 6 -20 7 -20 2z"/>
 <path d="M7926 2291 c-3 -5 1 -14 9 -21 13 -10 15 -9 15 9 0 21 -14 28 -24 12z"/>
 <path d="M3552 2278 c3 -7 13 -15 24 -17 16 -3 17 -1 5 13 -16 19 -34 21 -29 4z"/>
 <path d="M5980 2165 c0 -8 5 -15 10 -15 6 0 10 7 10 15 0 8 -4 15 -10 15 -5 0 -10 -7 -10 -15z"/>
 <path d="M2619 2098 c-5 -19 -6 -38 -1 -38 17 1 34 19 28 29 -6 10 -25 16 -27 9z"/>
 <path d="M5800 1990 c0 -5 7 -10 15 -10 8 0 15 5 15 10 0 6 -7 10 -15 10 -8 0 -15 -4 -15 -10z"/>
 <path d="M1961 1823 c-12 -13 -11 -14 7 -9 11 4 23 2 27 -4 11 -17 31 -11 31 9 0 15 -3 17 -13 9 -9 -7 -17 -7 -25 0 -9 7 -17 6 -27 -5z"/>
 <path d="M6860 1740 c0 -13 5 -18 14 -14 8 3 12 12 9 20 -8 21 -23 17 -23 -6z"/>
 <path d="M250 1735 c0 -9 5 -15 11 -13 6 2 11 8 11 13 0 5 -5 11 -11 13 -6 2 -11 -4 -11 -13z"/>
 <path d="M3347 1524 c-22 -29 -21 -31 3 -44 16 -8 24 -8 35 4 19 18 19 19 -3 43 l-17 20 -18 -23z"/>
 <path d="M5590 1380 c11 -20 30 -28 30 -12 0 11 -22 32 -32 32 -5 0 -4 -9 2 -20z"/>
 <path d="M6220 1111 c0 -16 28 -20 34 -5 4 9 -1 14 -14 14 -11 0 -20 -4 -20 -9z"/>
 <path d="M2932 844 c4 -21 22 -23 26 -1 2 10 -3 17 -13 17 -10 0 -15 -6 -13 -16z"/>
 <path d="M1616 723 c-11 -11 -6 -23 9 -23 8 0 15 4 15 9 0 13 -16 22 -24 14z"/>
 <path d="M5520 675 c0 -9 5 -15 11 -13 6 2 11 8 11 13 0 5 -5 11 -11 13 -6 2 -11 -4 -11 -13z"/>
 <path d="M1736 445 c4 -8 10 -15 15 -15 5 0 9 7 9 15 0 8 -7 15 -15 15 -9 0 -12 -6 -9 -15z"/>
 <path d="M7896 201 c-4 -6 -2 -11 4 -11 6 0 9 -4 5 -9 -3 -5 -1 -12 5 -16 12 -8 13 15 1 34 -6 9 -11 10 -15 2z"/>
 <path d="M7777 83 c-4 -6 0 -14 9 -17 24 -9 36 -7 29 4 -4 6 -10 8 -15 5 -4 -3 -10 0 -12 7 -3 8 -6 9 -11 1z"/>
 <path d="M2691 66 c-7 -8 -8 -17 -3 -20 6 -3 15 1 21 8 7 8 8 17 3 20 -6 3 -15 -1 -21 -8z"/>
 <path d="M5685 50 c-9 -15 -1 -23 21 -18 15 3 16 4 1 16 -11 9 -17 10 -22 2z"/>
 </g>

</svg>